<svg xmlns="http://www.w3.org/2000/svg" width="100" height="100" viewBox="0 0 100 100">
  <g id="item1" transform="translate(-440 -1219)">
    <g id="Ellipse_1218" data-name="Ellipse 1218" transform="translate(440 1219)" fill="#fff" stroke="#0e2b8d" stroke-width="2">
      <circle cx="50" cy="50" r="50" stroke="none"/>
      <circle cx="50" cy="50" r="49" fill="none"/>
    </g>
    <g id="Outline" transform="translate(465 1244)">
      <rect id="Rectangle_570" data-name="Rectangle 570" width="1.676" height="1.676" transform="translate(11.564 45.973)" fill="#0e2b8d"/>
      <path id="Path_1739" data-name="Path 1739" d="M39.258,237.517H24.9V224.845a.845.845,0,0,0-.845-.845H8.845a.845.845,0,0,0-.845.845v27.034a.845.845,0,0,0,.845.845H39.258a.845.845,0,0,0,.845-.845V238.362A.845.845,0,0,0,39.258,237.517Zm-9.293,1.69h3.379v3.379H29.965ZM14.759,225.69h3.379v3.379H14.759Zm-5.069,0h3.379v4.224a.845.845,0,0,0,.845.845h5.069a.845.845,0,0,0,.845-.845V225.69h3.379v11.827H9.69Zm5.069,13.517h3.379v3.379H14.759Zm-5.069,0h3.379v4.224a.845.845,0,0,0,.845.845h5.069a.845.845,0,0,0,.845-.845v-4.224h3.379v11.827H9.69Zm28.724,11.827H24.9V239.207h3.379v4.224a.845.845,0,0,0,.845.845h5.069a.845.845,0,0,0,.845-.845v-4.224h3.379Z" transform="translate(-8 -201.724)" fill="#0e2b8d"/>
      <rect id="Rectangle_571" data-name="Rectangle 571" width="1.676" height="1.676" transform="translate(26.432 45.973)" fill="#0e2b8d"/>
      <rect id="Rectangle_572" data-name="Rectangle 572" width="1.676" height="1.676" transform="translate(11.564 32.748)" fill="#0e2b8d"/>
      <path id="Path_1740" data-name="Path 1740" d="M56.97,18.845a.825.825,0,0,0,.2.023.835.835,0,0,0,.721-.416A.863.863,0,0,0,58,18.013V14.688a.836.836,0,0,0-.638-.813L33.194,8.023a.827.827,0,0,0-.391,0L8.637,13.876A.836.836,0,0,0,8,14.688v3.321a.872.872,0,0,0,.143.493.833.833,0,0,0,.885.343l1.471-.356V28.9h1.667V18.085L33,13.04l20.833,5.045V57.328h-5V24.721A.835.835,0,0,0,48,23.885H18a.835.835,0,0,0-.833.836v3.344A.835.835,0,0,0,18,28.9H47.165v1.672H26.332v1.672H47.165v1.672H26.332V35.59H47.165v1.672H26.332v1.672H47.165V57.328H41.332V59H58V57.328H55.5V18.489ZM18.832,27.229V25.557H47.165v1.672ZM33,11.344a.825.825,0,0,0-.2.023l-23.138,5.6V15.347L33,9.7l23.333,5.651v1.624l-23.138-5.6a.825.825,0,0,0-.2-.023Z" transform="translate(-7.999 -8)" fill="#0e2b8d"/>
      <path id="Path_1741" data-name="Path 1741" d="M213.914,93.069a2.534,2.534,0,0,0,0-5.069h-3.379a2.534,2.534,0,0,0,0,5.069Zm-4.224-2.534a.846.846,0,0,1,.845-.845h3.379a.845.845,0,1,1,0,1.69h-3.379A.846.846,0,0,1,209.69,90.534Z" transform="translate(-187.224 -79.649)" fill="#0e2b8d"/>
    </g>
  </g>
</svg>
