<svg xmlns="http://www.w3.org/2000/svg" width="100" height="100" viewBox="0 0 100 100">
  <g id="item2" transform="translate(-560 -1219)">
    <g id="Ellipse_1244" data-name="Ellipse 1244" transform="translate(560 1219)" fill="#fff" stroke="#0e2b8d" stroke-width="2">
      <circle cx="50" cy="50" r="50" stroke="none"/>
      <circle cx="50" cy="50" r="49" fill="none"/>
    </g>
    <g id="_005-mover-truck" data-name="005-mover-truck" transform="translate(582 1217.482)">
      <path id="Path_1809" data-name="Path 1809" d="M53.631,68.014A36.535,36.535,0,0,0,56,56.456a.849.849,0,0,0-.013-.146c-.021-.122-2.165-12.3-4.313-19.883A4.688,4.688,0,0,0,47.8,33.036a45.292,45.292,0,0,0-10.923-.246A4.461,4.461,0,0,0,34.543,33.8V29.978a3.437,3.437,0,0,0-3.406-3.46H9.758a.833.833,0,0,0,0,1.667h2.1V38.841a.836.836,0,0,0,.39.709.809.809,0,0,0,.8.035l4.22-2.152,4.22,2.152a.809.809,0,0,0,.8-.036.836.836,0,0,0,.39-.709V28.185h8.457A1.782,1.782,0,0,1,32.9,29.978V58.507H3.406a1.782,1.782,0,0,1-1.765-1.793V29.978a1.782,1.782,0,0,1,1.765-1.793H6.477a.833.833,0,0,0,0-1.667H3.406A3.437,3.437,0,0,0,0,29.978V56.714a3.469,3.469,0,0,0,1.934,3.12,2.84,2.84,0,0,0-.425,1.5V67.9A2.366,2.366,0,0,0,0,70.106v1.272A2.351,2.351,0,0,0,2.33,73.745H4.891a8.049,8.049,0,0,0,13.639,0H31.675a8.049,8.049,0,0,0,13.639,0h7.233a2.351,2.351,0,0,0,2.329-2.366V70.106a2.372,2.372,0,0,0-1.245-2.092ZM21.039,37.49l-3.4-1.734a.809.809,0,0,0-.736,0L13.5,37.49V28.185h7.536Zm29.058-.6c1.807,6.374,3.615,16.068,4.13,18.906a39.47,39.47,0,0,1-7.1.609,5.77,5.77,0,0,0-5.1-5.641c-.4-.045-.822-.08-1.247-.105-.684-8.22-.157-13.395.482-16.432a51.044,51.044,0,0,1,6.325.463,3.039,3.039,0,0,1,2.512,2.2ZM2.33,72.078a.7.7,0,0,1-.689-.7V70.106a.694.694,0,0,1,.689-.7H3.586a8.331,8.331,0,0,0,.484,2.67Zm9.381,3.773a6.591,6.591,0,0,1,0-13.181,6.591,6.591,0,0,1,0,13.181Zm7.64-3.773a8.337,8.337,0,0,0,.488-2.817A8.2,8.2,0,0,0,11.71,61a8.176,8.176,0,0,0-7.987,6.738H3.15V61.332a1.15,1.15,0,0,1,1.135-1.158H32.9v3.1a8.344,8.344,0,0,0-2.047,8.8Zm19.144,3.773a6.591,6.591,0,0,1,0-13.181,6.394,6.394,0,0,1,1.9.288.818.818,0,0,0,1.025-.553.836.836,0,0,0-.544-1.041,8.011,8.011,0,0,0-6.335.684v-.206s0,0,0-.006V37.312a2.892,2.892,0,0,1,2.526-2.867c.83-.1,1.672-.162,2.51-.194-1.087,5.511-.815,12.365-.372,17.283a.826.826,0,0,0,.792.757c.634.019,1.255.063,1.848.129a4.123,4.123,0,0,1,3.633,4.388q-.011.174-.024.349a.842.842,0,0,0,.207.619.815.815,0,0,0,.583.276q.617.021,1.214.02a40.537,40.537,0,0,0,6.871-.6,37.653,37.653,0,0,1-2.355,10.27h-5.5a8.316,8.316,0,0,0-2.446-4.522.811.811,0,0,0-1.159.042.843.843,0,0,0,.042,1.178,6.656,6.656,0,0,1,2.066,4.821,6.547,6.547,0,0,1-6.487,6.591Zm14.741-4.473a.7.7,0,0,1-.689.7H46.135a8.331,8.331,0,0,0,.484-2.67h5.929a.694.694,0,0,1,.689.7v1.272Z" transform="translate(0)" fill="#0e2b8d"/>
      <path id="Path_1810" data-name="Path 1810" d="M316.077,370.82a4.479,4.479,0,1,0,4.479,4.479A4.484,4.484,0,0,0,316.077,370.82Zm0,7.293a2.814,2.814,0,1,1,2.814-2.814A2.817,2.817,0,0,1,316.077,378.113Z" transform="translate(-277.611 -306.029)" fill="#0e2b8d"/>
      <path id="Path_1811" data-name="Path 1811" d="M71.194,370.82a4.479,4.479,0,1,0,4.479,4.479A4.484,4.484,0,0,0,71.194,370.82Zm0,7.293a2.814,2.814,0,1,1,2.814-2.814A2.817,2.817,0,0,1,71.194,378.113Z" transform="translate(-59.31 -306.029)" fill="#0e2b8d"/>
      <path id="Path_1812" data-name="Path 1812" d="M353.7,282.326a.832.832,0,0,0-.832-.832h-3.155a.832.832,0,0,0,0,1.665h3.155A.832.832,0,0,0,353.7,282.326Z" transform="translate(-310.774 -226.642)" fill="#0e2b8d"/>
      <path id="Path_1813" data-name="Path 1813" d="M428.5,332.038a2.538,2.538,0,0,0,2.535-2.535v-.713a2.535,2.535,0,0,0-5.071,0v.713A2.538,2.538,0,0,0,428.5,332.038Zm-.871-3.249a.871.871,0,0,1,1.741,0v.713a.871.871,0,0,1-1.741,0Z" transform="translate(-379.518 -266.425)" fill="#0e2b8d"/>
      <path id="Path_1814" data-name="Path 1814" d="M30.2,182.086a51.426,51.426,0,0,0,0,8.572,2.406,2.406,0,0,0,2.2,2.2c1.422.119,2.854.179,4.286.179s2.864-.06,4.286-.179a2.406,2.406,0,0,0,2.2-2.2,51.45,51.45,0,0,0,0-8.572,2.406,2.406,0,0,0-2.2-2.2,51.451,51.451,0,0,0-8.572,0A2.4,2.4,0,0,0,30.2,182.086Zm6.488-.716c1.385,0,2.771.058,4.147.173a.745.745,0,0,1,.682.682,49.787,49.787,0,0,1,0,8.293.745.745,0,0,1-.682.682,49.769,49.769,0,0,1-8.293,0,.745.745,0,0,1-.682-.682,49.762,49.762,0,0,1,0-8.293.745.745,0,0,1,.682-.682C33.92,181.428,35.306,181.37,36.691,181.37Z" transform="translate(-26.692 -136.158)" fill="#0e2b8d"/>
      <path id="Path_1815" data-name="Path 1815" d="M56.86,219.132h5.9a.832.832,0,0,0,0-1.665h-5.9a.832.832,0,0,0,0,1.665Z" transform="translate(-49.809 -169.73)" fill="#0e2b8d"/>
      <path id="Path_1816" data-name="Path 1816" d="M56.86,248.738h5.9a.832.832,0,1,0,0-1.665h-5.9a.832.832,0,0,0,0,1.665Z" transform="translate(-49.809 -196.046)" fill="#0e2b8d"/>
    </g>
  </g>
</svg>
