<svg xmlns="http://www.w3.org/2000/svg" width="100" height="100" viewBox="0 0 100 100">
  <g id="item3" transform="translate(-680 -1219)">
    <g id="Ellipse_1245" data-name="Ellipse 1245" transform="translate(680 1219)" fill="#fff" stroke="#0e2b8d" stroke-width="2">
      <circle cx="50" cy="50" r="50" stroke="none"/>
      <circle cx="50" cy="50" r="49" fill="none"/>
    </g>
    <g id="Outline" transform="translate(675.928 1196)">
      <path id="Path_1817" data-name="Path 1817" d="M67.938,62.807h4.515l-.661.663a3.077,3.077,0,0,0,4.346,4.357l5.007-5.02h1.561v.987a.986.986,0,0,0,.985.987h9.846V62.807H84.676V50.961h25.6V48.987H83.691a.986.986,0,0,0-.985.987v.987H81.135A10.976,10.976,0,0,0,73.607,48H67.938A3.948,3.948,0,0,0,64,51.948v6.91a3.948,3.948,0,0,0,3.938,3.949ZM65.969,51.948a1.974,1.974,0,0,1,1.969-1.974h5.669a9.028,9.028,0,0,1,6.435,2.672.983.983,0,0,0,.7.289h1.969v7.9H80.738a.983.983,0,0,0-.7.289l-5.3,5.31a1.106,1.106,0,0,1-1.561-1.566l2.342-2.348a.987.987,0,0,0-.7-1.685H67.938a1.974,1.974,0,0,1-1.969-1.974Z" transform="translate(-34.124 0)" fill="#0e2b8d"/>
      <path id="Path_1818" data-name="Path 1818" d="M248,88h1.974v1.974H248Z" transform="translate(-195.48 -35.064)" fill="#0e2b8d"/>
      <path id="Path_1819" data-name="Path 1819" d="M58.265,164.138,56,160.218l.905.243a3.081,3.081,0,1,0,1.6-5.953l-6.858-1.838-.783-1.356.855-.494a.987.987,0,0,0,.361-1.348l-5.025-8.7-1.71.987,4.531,7.849-10.259,5.923L26.782,133.3l-1.71.987L38.4,157.37a.987.987,0,0,0,1.348.362l.855-.494.788,1.365A11.02,11.02,0,0,0,42.6,166.62l2.842,4.922a3.922,3.922,0,0,0,2.4,1.84,3.97,3.97,0,0,0,1.028.136,3.925,3.925,0,0,0,1.968-.531l5.985-3.455A3.953,3.953,0,0,0,58.265,164.138Zm-2.432,3.684-5.985,3.455a1.974,1.974,0,0,1-2.7-.723l-2.842-4.922a9.064,9.064,0,0,1-.912-6.923.987.987,0,0,0-.1-.749l-.987-1.71,6.839-3.949.987,1.71a.987.987,0,0,0,.6.46l7.253,1.943a1.107,1.107,0,1,1-.573,2.139l-3.208-.86a.987.987,0,0,0-1.111,1.447l3.455,5.985a1.977,1.977,0,0,1-.722,2.7Z" transform="translate(0 -74.614)" fill="#0e2b8d"/>
      <path id="Path_1820" data-name="Path 1820" d="M0,0H1.974V1.974H0Z" transform="matrix(0.866, -0.5, 0.5, 0.866, 39.318, 76.437)" fill="#0e2b8d"/>
      <path id="Path_1821" data-name="Path 1821" d="M287.609,94.093l-5.985-3.467a3.946,3.946,0,0,0-5.394,1.45l-2.264,3.934-.243-.909a3.082,3.082,0,1,0-5.953,1.6l1.838,6.882-.783,1.361-.855-.5a.985.985,0,0,0-1.348.363l-4.97,8.639,1.71.991,4.476-7.781L278.1,112.6l-12.833,22.306,1.71.991L280.3,112.737a.993.993,0,0,0-.361-1.353l-.855-.5.788-1.37a11.027,11.027,0,0,0,6.339-5.074l2.842-4.939A3.975,3.975,0,0,0,287.609,94.093Zm-.264,4.422-2.842,4.939a9.068,9.068,0,0,1-5.54,4.266.988.988,0,0,0-.6.462l-.987,1.716-6.839-3.963.987-1.716a.994.994,0,0,0,.1-.752l-1.943-7.279a1.107,1.107,0,1,1,2.138-.575l.859,3.219a.986.986,0,0,0,1.808.239l3.455-6.006a1.973,1.973,0,0,1,2.7-.725l5.985,3.467a1.987,1.987,0,0,1,.722,2.707Z" transform="translate(-207.51 -36.902)" fill="#0e2b8d"/>
      <path id="Path_1822" data-name="Path 1822" d="M0,0H1.974V1.974H0Z" transform="matrix(0.5, -0.866, 0.866, 0.5, 65.225, 77.162)" fill="#0e2b8d"/>
    </g>
  </g>
</svg>
