<svg id="icon--pin" xmlns="http://www.w3.org/2000/svg" width="54" height="54" viewBox="0 0 54 54">
  <path id="Path_1728" data-name="Path 1728" d="M218.8,61.4a5.4,5.4,0,1,0-5.4,5.4A5.4,5.4,0,0,0,218.8,61.4Zm-9,0a3.6,3.6,0,1,1,3.6,3.6A3.6,3.6,0,0,1,209.8,61.4Z" transform="translate(-186.402 -51.499)" fill="#fff"/>
  <path id="Path_1729" data-name="Path 1729" d="M177.387,41.045a.9.9,0,0,0,1.033,0,28.649,28.649,0,0,0,4.664-4.311c3.089-3.553,4.722-7.3,4.722-10.831A9.9,9.9,0,1,0,168,25.9c0,3.534,1.633,7.279,4.722,10.831a28.651,28.651,0,0,0,4.664,4.311ZM177.9,17.8a8.112,8.112,0,0,1,8.1,8.1c0,6.442-6.244,11.819-8.1,13.277-1.862-1.456-8.1-6.823-8.1-13.277A8.112,8.112,0,0,1,177.9,17.8Z" transform="translate(-150.903 -16)" fill="#fff"/>
  <path id="Path_1730" data-name="Path 1730" d="M0,0H1.8V1.884H0Z" transform="matrix(0.294, -0.956, 0.956, 0.294, 15.044, 46.751)" fill="#fff"/>
  <path id="Path_1731" data-name="Path 1731" d="M0,0H1.8V1.884H0Z" transform="matrix(0.294, -0.956, 0.956, 0.294, 18.644, 47.855)" fill="#fff"/>
  <path id="Path_1732" data-name="Path 1732" d="M0,0H1.8V1.884H0Z" transform="matrix(0.294, -0.956, 0.956, 0.294, 22.244, 48.966)" fill="#fff"/>
  <path id="Path_1733" data-name="Path 1733" d="M91.365,167.584l-16.2-4.153-.529,1.72,13.4,3.293L65,174.7l-23.04-6.258,13.4-3.293-.529-1.72-16.2,4.153a.9.9,0,0,0-.635.86v24.3a.9.9,0,0,0,.635.86l26.1,7.2a.9.9,0,0,0,.529,0l26.1-7.2a.9.9,0,0,0,.635-.86v-24.3a.9.9,0,0,0-.635-.86ZM39.8,169.663l24.3,6.645v22.414l-24.3-6.645Zm26.1,29.059V176.308l24.3-6.645v22.414Z" transform="translate(-38 -146.84)" fill="#fff"/>
  <path id="Path_1734" data-name="Path 1734" d="M0,0H1.884V1.8H0Z" transform="matrix(0.956, -0.294, 0.294, 0.956, 38.441, 45.049)" fill="#fff"/>
  <path id="Path_1735" data-name="Path 1735" d="M0,0H1.884V1.8H0Z" transform="matrix(0.956, -0.294, 0.294, 0.956, 42.04, 43.945)" fill="#fff"/>
  <path id="Path_1736" data-name="Path 1736" d="M0,0H1.884V1.8H0Z" transform="matrix(0.956, -0.294, 0.294, 0.956, 45.64, 42.836)" fill="#fff"/>
  <path id="Path_1737" data-name="Path 1737" d="M113.9,267.533a.9.9,0,0,0,.9-.9v-4.5a.9.9,0,0,0-.635-.86l-9-2.77a.9.9,0,0,0-1.165.861v4.5a.9.9,0,0,0,.635.86l9,2.77A.9.9,0,0,0,113.9,267.533Zm-.9-2.119-7.2-2.216V260.58L113,262.8Z" transform="translate(-94.101 -231.186)" fill="#fff"/>
  <path id="Path_1738" data-name="Path 1738" d="M322.8,263.863v-4.5a.9.9,0,0,0-1.165-.861l-9,2.77a.9.9,0,0,0-.635.86v4.5a.9.9,0,0,0,1.165.861l9-2.77A.9.9,0,0,0,322.8,263.863ZM321,263.2l-7.2,2.216V262.8l7.2-2.216Z" transform="translate(-278.703 -231.186)" fill="#fff"/>
</svg>
