<svg id="icon--support" xmlns="http://www.w3.org/2000/svg" width="54" height="49" viewBox="0 0 54 49">
  <g id="Group_198" data-name="Group 198" transform="translate(49.303 32.152)">
    <g id="Group_197" data-name="Group 197">
      <path id="Path_1716" data-name="Path 1716" d="M471.971,331.618l-2.581-2.56a1.058,1.058,0,0,0-1.49,1.5l2.581,2.56a1.058,1.058,0,0,0,1.49-1.5Z" transform="translate(-467.587 -328.751)" fill="#fff"/>
    </g>
  </g>
  <g id="Group_200" data-name="Group 200" transform="translate(46.669 29.547)">
    <g id="Group_199" data-name="Group 199">
      <path id="Path_1717" data-name="Path 1717" d="M444.482,304.261a1.058,1.058,0,0,0-1.5,0l0,0a1.058,1.058,0,1,0,1.5,0Z" transform="translate(-442.675 -303.952)" fill="#fff"/>
    </g>
  </g>
  <g id="Group_202" data-name="Group 202" transform="translate(0 0)">
    <g id="Group_201" data-name="Group 201" transform="translate(0 0)">
      <path id="Path_1718" data-name="Path 1718" d="M39.49,58.181,49.722,47.959a3.968,3.968,0,0,0-1.917-6.675,3.973,3.973,0,0,0-2.93-5.587,3.965,3.965,0,0,0-3.1-5.154,3.976,3.976,0,0,0-5.673-4.737l-.1-.109a7.041,7.041,0,0,0-5.136-2.234H22.587a1.054,1.054,0,0,0-1.055,1.054V25.9a4.783,4.783,0,0,0,.273,1.6,3.973,3.973,0,0,0-5.3,4.915,3.97,3.97,0,0,0-3.1,5.155,3.971,3.971,0,0,0-2.927,5.584,3.971,3.971,0,0,0-1.917,6.678l2.1,2.1L.308,62.279A1.054,1.054,0,0,0,1.8,63.77L12.259,53.32a3.972,3.972,0,0,0,5.933-3.613c.053,0,.107,0,.16,0a3.969,3.969,0,0,0,3.974-3.969c0-.054,0-.107,0-.16.053,0,.106,0,.159,0a3.969,3.969,0,0,0,3.974-3.969c0-.054,0-.107,0-.16.053,0,.106,0,.159,0a3.969,3.969,0,0,0,3.074-6.486l7-7a1.864,1.864,0,1,1,2.638,2.635l-1.032,1.031-3.745,3.742a1.054,1.054,0,0,0,1.492,1.49l3.745-3.742a1.864,1.864,0,1,1,2.638,2.635L41.388,36.8l-2.713,2.711A1.054,1.054,0,0,0,40.167,41l2.713-2.711a1.864,1.864,0,1,1,2.638,2.635L44.1,42.343l-1.3,1.295a1.054,1.054,0,0,0,1.492,1.49l1.3-1.3a1.864,1.864,0,0,1,2.637,2.636L38,56.692a14.294,14.294,0,0,1-9.615,4.185,1.055,1.055,0,0,0-.709.309l-9.452,9.478a1.054,1.054,0,0,0,1.494,1.488l6.952-6.972a9.81,9.81,0,0,0,5.954,1.531l5.441,5.436a1.054,1.054,0,0,0,1.492-1.49L33.77,64.876a1.056,1.056,0,0,0-.832-.305L32.6,64.6a7.7,7.7,0,0,1-4.4-.957l.678-.68A16.4,16.4,0,0,0,39.49,58.181Zm-23.948-7a1.866,1.866,0,0,1-2.638,0l-2.85-2.847A1.864,1.864,0,0,1,12.692,45.7l2.85,2.847A1.865,1.865,0,0,1,15.542,51.185Zm4.129-4.126a1.869,1.869,0,0,1-2.638,0l-2.85-2.847L12.767,42.8A1.864,1.864,0,0,1,15.4,40.16l4.267,4.263h0a1.863,1.863,0,0,1,0,2.635ZM23.8,42.933a1.869,1.869,0,0,1-2.638,0l-5.3-5.295A1.864,1.864,0,0,1,18.5,35l2.415,2.413L23.8,40.3h0a1.863,1.863,0,0,1,0,2.635Zm4.129-4.126a1.868,1.868,0,0,1-2.638,0l-5.3-5.295,0,0-1.031-1.03A1.864,1.864,0,0,1,21.6,29.846l6.331,6.326a1.863,1.863,0,0,1,0,2.636Zm.277-5.339-2.9-2.894a4.829,4.829,0,0,0,1.01.107h.023l2.894-.014a1.054,1.054,0,0,0,0-2.108h-.005l-2.894.014h-.013A2.678,2.678,0,0,1,23.642,25.9v-.328h7.227a4.924,4.924,0,0,1,3.592,1.563l.043.046Z" transform="translate(0 -23.462)" fill="#fff"/>
    </g>
  </g>
</svg>
