<svg xmlns="http://www.w3.org/2000/svg" width="45" height="45" viewBox="0 0 45 45">
  <g id="icon--call" transform="translate(-343 -6159.6)">
    <g id="Rounded_Rectangle_1" data-name="Rounded Rectangle 1" transform="translate(343 6159.6)" fill="none">
      <path d="M5,0H40a5,5,0,0,1,5,5V40a5,5,0,0,1-5,5H5a5,5,0,0,1-5-5V5A5,5,0,0,1,5,0Z" stroke="none"/>
      <path d="M 5 2 C 3.345790863037109 2 2 3.345790863037109 2 5 L 2 40 C 2 41.65420913696289 3.345790863037109 43 5 43 L 40 43 C 41.65420913696289 43 43 41.65420913696289 43 40 L 43 5 C 43 3.345790863037109 41.65420913696289 2 40 2 L 5 2 M 5 0 L 40 0 C 42.76142120361328 0 45 2.238571166992188 45 5 L 45 40 C 45 42.76142120361328 42.76142120361328 45 40 45 L 5 45 C 2.238571166992188 45 0 42.76142120361328 0 40 L 0 5 C 0 2.238571166992188 2.238571166992188 0 5 0 Z" stroke="none" fill="#eaeaea"/>
    </g>
    <path id="Icon" d="M1152.953,95.408a9.8,9.8,0,0,1-3.537-1.044,19.015,19.015,0,0,1-6.314-4.939,17.362,17.362,0,0,1-3.081-5.134,6.887,6.887,0,0,1-.515-2.968,2.881,2.881,0,0,1,.858-1.835l1.385-1.379a1.917,1.917,0,0,1,1.333-.58,1.84,1.84,0,0,1,1.314.58c.254.234.507.495.753.744.125.124.249.253.378.382l1.1,1.1a1.764,1.764,0,0,1,0,2.7c-.117.117-.23.233-.343.347-.308.315-.628.639-.971.95a7.848,7.848,0,0,0,1.12,1.784,13.942,13.942,0,0,0,3.342,3.042c.121.074.257.144.406.218.117.059.238.117.355.183l1.314-1.313a1.881,1.881,0,0,1,1.334-.6,1.821,1.821,0,0,1,1.322.608l2.223,2.22a1.807,1.807,0,0,1,.007,2.692c-.168.179-.347.35-.522.518a9.106,9.106,0,0,0-.714.736l-.016.016a2.982,2.982,0,0,1-2.282.982C1153.121,95.416,1153.039,95.412,1152.953,95.408ZM1142.42,78.787l-1.377,1.375a1.906,1.906,0,0,0-.581,1.239,5.891,5.891,0,0,0,.46,2.559,16.391,16.391,0,0,0,2.917,4.854,17.918,17.918,0,0,0,6,4.69,8.914,8.914,0,0,0,3.182.95c.062,0,.129.008.191.008a2.011,2.011,0,0,0,1.572-.662,10.218,10.218,0,0,1,.776-.8c.172-.167.336-.323.491-.491a.874.874,0,0,0,.012-1.36l-2.231-2.228a.929.929,0,0,0-.64-.32.948.948,0,0,0-.659.32l-1.385,1.383a.784.784,0,0,1-.566.261.817.817,0,0,1-.37-.094l-.043-.024c-.12-.074-.257-.144-.405-.218a5.369,5.369,0,0,1-.491-.269,14.862,14.862,0,0,1-3.576-3.252,8.812,8.812,0,0,1-1.3-2.115c0-.012-.008-.019-.011-.031a.742.742,0,0,1,.191-.845l.019-.019c.355-.315.675-.643,1.018-.989.113-.117.23-.234.347-.351a.839.839,0,0,0,0-1.348l-1.1-1.1c-.132-.129-.261-.261-.386-.39-.25-.253-.488-.495-.734-.724a.938.938,0,0,0-.651-.312A.975.975,0,0,0,1142.42,78.787Zm11.649,6.334a5.268,5.268,0,0,0-4.294-4.289.476.476,0,1,1,.16-.939,6.215,6.215,0,0,1,5.078,5.068.474.474,0,0,1-.39.549.616.616,0,0,1-.082.008A.477.477,0,0,1,1154.069,85.121Zm3.471-.164a9.331,9.331,0,0,0-7.605-7.6.476.476,0,1,1,.16-.939,10.278,10.278,0,0,1,8.389,8.375.474.474,0,0,1-.39.549.548.548,0,0,1-.082.008A.476.476,0,0,1,1157.54,84.957Z" transform="translate(-783.491 6096.184)" fill="#fff"/>
  </g>
</svg>
