<svg xmlns="http://www.w3.org/2000/svg" width="45" height="45" viewBox="0 0 45 45">
  <g id="icon--home" transform="translate(-623 -6159.6)">
    <g id="Rounded_Rectangle_1_copy" data-name="Rounded Rectangle 1 copy" transform="translate(623 6159.6)" fill="none">
      <path d="M5,0H40a5,5,0,0,1,5,5V40a5,5,0,0,1-5,5H5a5,5,0,0,1-5-5V5A5,5,0,0,1,5,0Z" stroke="none"/>
      <path d="M 5 2 C 3.345790863037109 2 2 3.345790863037109 2 5 L 2 40 C 2 41.65420913696289 3.345790863037109 43 5 43 L 40 43 C 41.65420913696289 43 43 41.65420913696289 43 40 L 43 5 C 43 3.345790863037109 41.65420913696289 2 40 2 L 5 2 M 5 0 L 40 0 C 42.76142120361328 0 45 2.238571166992188 45 5 L 45 40 C 45 42.76142120361328 42.76142120361328 45 40 45 L 5 45 C 2.238571166992188 45 0 42.76142120361328 0 40 L 0 5 C 0 2.238571166992188 2.238571166992188 0 5 0 Z" stroke="none" fill="#eaeaea"/>
    </g>
    <path id="Icon" d="M19.491,19H.5a.506.506,0,0,1-.5-.509v-5.14a.51.51,0,0,1,.2-.406l3.806-2.9V8.881a.51.51,0,0,1,.2-.406L11.7,2.767a.5.5,0,0,1,.606,0l7.491,5.708a.51.51,0,0,1,.2.406v1.165l3.806,2.9a.51.51,0,0,1,.2.406v5.14a.506.506,0,0,1-.5.509Zm.5-1.018h3V13.6l-3-2.285ZM13.048,14.4a.506.506,0,0,1,.5.509v3.073h5.436V9.134L12,3.81,5.013,9.134v8.848h5.435V14.909a.506.506,0,0,1,.5-.509Zm-1.592,3.581h1.089V15.418H11.456ZM1.007,13.606v4.377h3V11.32ZM23.193,9.675,12,1.146.806,9.675a.5.5,0,0,1-.705-.1.512.512,0,0,1,.1-.712L11.7.1A.5.5,0,0,1,12.3.1l11.5,8.76a.512.512,0,0,1,.1.712.5.5,0,0,1-.705.1Z" transform="translate(634 6172.6)" fill="#fff"/>
  </g>
</svg>
